<svg width="1190" height="640" viewBox="0 0 1190 640" fill="none" xmlns="http://www.w3.org/2000/svg">
<g clip-path="url(#clip0_0_1)">
<mask id="mask0_0_1" style="mask-type:luminance" maskUnits="userSpaceOnUse" x="0" y="0" width="1190" height="640">
<path d="M1174 0H16C7.16344 0 0 7.16344 0 16V624C0 632.837 7.16344 640 16 640H1174C1182.84 640 1190 632.837 1190 624V16C1190 7.16344 1182.84 0 1174 0Z" fill="white"/>
</mask>
<g mask="url(#mask0_0_1)">
<path d="M1174 0H16C7.16344 0 0 7.16344 0 16V624C0 632.837 7.16344 640 16 640H1174C1182.84 640 1190 632.837 1190 624V16C1190 7.16344 1182.84 0 1174 0Z" fill="#F4E9E1"/>
<path d="M118.5 193.5V63L214.5 115V219L118.5 193.5Z" fill="#05FF00"/>
<path d="M520 234.5L439.5 235L471 251.5H535L520 234.5Z" fill="#05FF00"/>
<path d="M1190.5 478.5L1071.5 446.5V576L1190.5 640V478.5Z" fill="#05FF00"/>
<path d="M976.5 114.5H776L740 155H899.5L976.5 114.5Z" fill="#05FF00"/>
<path d="M838.5 452L790 426.5H690L712.5 452H838.5Z" fill="#05FF00"/>
<path d="M415 525H215L119 576H370L415 525Z" fill="#05FF00"/>
<path d="M674.5 275.5H515.5V364.5H674.5V275.5Z" stroke="#0E0E0E"/>
<path d="M694.5 264.5H495.5V375H694.5V264.5Z" stroke="#0E0E0E"/>
<path d="M719.5 251.5H470.5V388.875H719.5V251.5Z" stroke="#0E0E0E"/>
<path d="M751 234.5H439.5V405.469H751V234.5Z" stroke="#0E0E0E"/>
<path d="M790.125 213.5H400.5V426.461H790.125V213.5Z" stroke="#0E0E0E"/>
<path d="M838.788 187.5H351.5V451.955H838.788V187.5Z" stroke="#0E0E0E"/>
<path d="M899.862 154.5H290.5V484.82H899.862V154.5Z" stroke="#0E0E0E"/>
<path d="M976.45 114.5H214.5V524.898H976.45V114.5Z" stroke="#0E0E0E"/>
<path d="M1071.19 62.5H118.5V576.248H1071.19V62.5Z" stroke="#0E0E0E"/>
<path d="M6.10352e-05 0.0264282L516 275.526" stroke="#0E0E0E"/>
<path d="M1189.99 6.10352e-05L673.986 275.5" stroke="#0E0E0E"/>
<path d="M6.10352e-05 639.526L516 364.026" stroke="#0E0E0E"/>
<path d="M1189.99 639.526L673.986 364.026" stroke="#0E0E0E"/>
<path d="M0 319.5H515" stroke="#0E0E0E"/>
<path d="M675 319.5H1190" stroke="#0E0E0E"/>
<path d="M594.5 275V0" stroke="#0E0E0E"/>
<path d="M635.5 275L876.5 -1" stroke="#0E0E0E"/>
<path d="M674 299L1191 162" stroke="#0E0E0E"/>
<path d="M674 341L1191 478" stroke="#0E0E0E"/>
<path d="M516 341L-1 478" stroke="#0E0E0E"/>
<path d="M516 299L-1 162" stroke="#0E0E0E"/>
<path d="M635.5 364L876.5 640" stroke="#0E0E0E"/>
<path d="M555.5 275L314.5 -1" stroke="#0E0E0E"/>
<path d="M555.5 364L314.5 640" stroke="#0E0E0E"/>
<path d="M594.5 640V365" stroke="#0E0E0E"/>
<path d="M366.72 331H386.32V471H366.72V331ZM410.167 371.2H429.167L428.367 404.4H429.167V471H410.167V371.2ZM478.767 412.4C478.767 403.333 476.701 396.333 472.567 391.4C468.567 386.467 462.834 384 455.367 384C446.834 384 440.301 387.067 435.767 393.2C431.367 399.2 429.167 407.933 429.167 419.4H425.967V406.2H426.967C427.767 394.467 431.167 385.267 437.167 378.6C443.167 371.933 451.367 368.6 461.767 368.6C468.967 368.6 475.301 370.267 480.767 373.6C486.234 376.933 490.434 381.667 493.367 387.8C496.301 393.933 497.767 401.2 497.767 409.6V471H478.767V412.4ZM561.314 473.6C552.514 473.6 544.581 471.4 537.514 467C530.447 462.467 524.914 456.2 520.914 448.2C517.047 440.2 515.114 431.133 515.114 421C515.114 411 517.047 402 520.914 394C524.914 386 530.447 379.8 537.514 375.4C544.581 370.867 552.514 368.6 561.314 368.6C570.114 368.6 577.781 370.8 584.314 375.2C590.847 379.467 595.847 385.533 599.314 393.4C602.914 401.267 604.714 410.467 604.714 421C604.714 431.533 602.914 440.8 599.314 448.8C595.847 456.667 590.847 462.8 584.314 467.2C577.781 471.467 570.114 473.6 561.314 473.6ZM565.914 458C572.181 458 577.714 456.467 582.514 453.4C587.314 450.2 591.047 445.867 593.714 440.4C596.381 434.8 597.714 428.333 597.714 421C597.714 413.8 596.381 407.467 593.714 402C591.047 396.4 587.314 392.067 582.514 389C577.714 385.8 572.247 384.2 566.114 384.2C559.981 384.2 554.514 385.8 549.714 389C544.914 392.2 541.114 396.6 538.314 402.2C535.647 407.667 534.314 413.933 534.314 421C534.314 428.2 535.647 434.6 538.314 440.2C541.114 445.667 544.914 450 549.714 453.2C554.514 456.4 559.914 458 565.914 458ZM596.714 471C596.714 463.8 596.714 456.667 596.714 449.6V435.8H599.514V406.4H596.714V331H615.514V449.6C615.514 456.667 615.514 463.8 615.514 471H596.714ZM683.822 474.4C674.222 474.4 665.555 472.133 657.822 467.6C650.222 462.933 644.289 456.6 640.022 448.6C635.755 440.467 633.622 431.267 633.622 421C633.622 410.867 635.755 401.733 640.022 393.6C644.289 385.467 650.222 379.133 657.822 374.6C665.422 369.933 674.022 367.6 683.622 367.6C694.555 367.6 703.822 370.533 711.422 376.4C719.155 382.133 724.689 389.533 728.022 398.6C731.355 407.533 732.422 416.8 731.222 426.4H645.022V412.2H712.822C712.822 406.6 711.555 401.533 709.022 397C706.622 392.333 703.155 388.667 698.622 386C694.222 383.333 689.222 382 683.622 382C677.755 382 672.422 383.467 667.622 386.4C662.955 389.333 659.289 393.4 656.622 398.6C654.089 403.667 652.822 409.467 652.822 416V425.2C652.822 431.733 654.155 437.6 656.822 442.8C659.489 448 663.155 452.133 667.822 455.2C672.622 458.133 678.022 459.6 684.022 459.6C690.955 459.6 697.089 457.8 702.422 454.2C707.755 450.6 711.355 445.733 713.222 439.6L729.422 442.2C727.955 448.333 725.089 453.867 720.822 458.8C716.555 463.733 711.222 467.6 704.822 470.4C698.422 473.067 691.422 474.4 683.822 474.4ZM774.834 421H773.834L736.834 371.2H758.234L793.634 421H794.634L832.034 471H810.234L774.834 421ZM774.634 419.6H794.034L757.234 471H736.834L774.634 419.6ZM811.234 371.2H831.434L793.834 422.6H774.434L811.234 371.2Z" fill="#0E0E0E"/>
</g>
<path d="M1174 0.5H16C7.43959 0.5 0.5 7.43959 0.5 16V624C0.5 632.56 7.43959 639.5 16 639.5H1174C1182.56 639.5 1189.5 632.56 1189.5 624V16C1189.5 7.43959 1182.56 0.5 1174 0.5Z" stroke="#0E0E0E"/>
<path d="M367 395V361V347H386V395H367Z" fill="#0E0E0E"/>
<path d="M249.987 248.308H222.288C221.223 242.39 219.24 237.181 216.34 232.683C213.44 228.185 209.889 224.368 205.687 221.231C201.485 218.094 196.779 215.727 191.571 214.129C186.422 212.531 180.947 211.732 175.147 211.732C164.671 211.732 155.29 214.365 147.004 219.633C138.777 224.9 132.267 232.624 127.473 242.804C122.738 252.984 120.371 265.413 120.371 280.091C120.371 294.887 122.738 307.375 127.473 317.555C132.267 327.735 138.807 335.429 147.093 340.638C155.379 345.846 164.701 348.45 175.058 348.45C180.799 348.45 186.244 347.681 191.393 346.142C196.602 344.544 201.307 342.206 205.509 339.129C209.711 336.051 213.263 332.293 216.163 327.854C219.122 323.356 221.164 318.206 222.288 312.406L249.987 312.495C248.508 321.432 245.637 329.659 241.376 337.175C237.174 344.633 231.758 351.084 225.129 356.529C218.56 361.915 211.043 366.088 202.58 369.047C194.116 372.006 184.883 373.486 174.881 373.486C159.137 373.486 145.11 369.757 132.8 362.3C120.489 354.783 110.783 344.041 103.68 330.073C96.6373 316.105 93.1158 299.445 93.1158 280.091C93.1158 260.678 96.6669 244.017 103.769 230.109C110.871 216.141 120.578 205.428 132.888 197.971C145.199 190.454 159.196 186.696 174.881 186.696C184.528 186.696 193.524 188.087 201.869 190.869C210.274 193.591 217.82 197.616 224.508 202.942C231.196 208.21 236.73 214.661 241.109 222.296C245.489 229.872 248.448 238.543 249.987 248.308ZM440.75 280.091C440.75 299.504 437.199 316.194 430.096 330.162C422.994 344.071 413.258 354.783 400.888 362.3C388.578 369.757 374.58 373.486 358.896 373.486C343.153 373.486 329.096 369.757 316.726 362.3C304.416 354.783 294.709 344.041 287.607 330.073C280.505 316.105 276.954 299.445 276.954 280.091C276.954 260.678 280.505 244.017 287.607 230.109C294.709 216.141 304.416 205.428 316.726 197.971C329.096 190.454 343.153 186.696 358.896 186.696C374.58 186.696 388.578 190.454 400.888 197.971C413.258 205.428 422.994 216.141 430.096 230.109C437.199 244.017 440.75 260.678 440.75 280.091ZM413.584 280.091C413.584 265.295 411.187 252.836 406.393 242.715C401.658 232.535 395.147 224.841 386.861 219.633C378.635 214.365 369.313 211.732 358.896 211.732C348.42 211.732 339.069 214.365 330.842 219.633C322.615 224.841 316.105 232.535 311.311 242.715C306.576 252.836 304.209 265.295 304.209 280.091C304.209 294.887 306.576 307.375 311.311 317.555C316.105 327.676 322.615 335.37 330.842 340.638C339.069 345.846 348.42 348.45 358.896 348.45C369.313 348.45 378.635 345.846 386.861 340.638C395.147 335.37 401.658 327.676 406.393 317.555C411.187 307.375 413.584 294.887 413.584 280.091ZM574.117 236.945C573.17 228.54 569.264 222.03 562.398 217.413C555.533 212.738 546.892 210.4 536.475 210.4C529.018 210.4 522.567 211.584 517.121 213.951C511.676 216.259 507.445 219.455 504.426 223.539C501.467 227.564 499.987 232.151 499.987 237.3C499.987 241.62 500.993 245.349 503.006 248.486C505.077 251.623 507.77 254.256 511.085 256.387C514.458 258.459 518.068 260.205 521.915 261.625C525.763 262.986 529.462 264.111 533.013 264.999L550.768 269.615C556.569 271.036 562.517 272.959 568.613 275.386C574.709 277.812 580.361 281.008 585.57 284.974C590.778 288.939 594.98 293.852 598.176 299.711C601.431 305.57 603.059 312.584 603.059 320.751C603.059 331.05 600.396 340.194 595.069 348.184C589.801 356.174 582.137 362.477 572.075 367.094C562.073 371.71 549.969 374.018 535.765 374.018C522.152 374.018 510.374 371.858 500.431 367.538C490.488 363.217 482.705 357.091 477.082 349.161C471.46 341.17 468.353 331.701 467.761 320.751H495.282C495.815 327.321 497.945 332.796 501.674 337.175C505.462 341.496 510.286 344.722 516.145 346.852C522.063 348.924 528.544 349.96 535.587 349.96C543.341 349.96 550.236 348.746 556.273 346.32C562.369 343.834 567.163 340.401 570.655 336.021C574.147 331.582 575.893 326.404 575.893 320.485C575.893 315.099 574.354 310.69 571.276 307.257C568.258 303.824 564.144 300.983 558.936 298.734C553.787 296.485 547.957 294.503 541.447 292.786L519.962 286.927C505.403 282.961 493.862 277.132 485.339 269.438C476.875 261.743 472.643 251.563 472.643 238.898C472.643 228.422 475.484 219.278 481.166 211.465C486.848 203.653 494.542 197.586 504.249 193.266C513.955 188.886 524.904 186.696 537.097 186.696C549.407 186.696 560.268 188.856 569.678 193.177C579.148 197.497 586.605 203.446 592.05 211.021C597.496 218.538 600.336 227.179 600.573 236.945H574.117ZM635.84 189.182H669.132L727.016 330.517H729.146L787.03 189.182H820.322V371H794.221V239.43H792.534L738.912 370.734H717.25L663.628 239.342H661.941V371H635.84V189.182ZM887.638 189.182V371H860.206V189.182H887.638ZM1078.6 248.308H1050.9C1049.84 242.39 1047.85 237.181 1044.95 232.683C1042.05 228.185 1038.5 224.368 1034.3 221.231C1030.1 218.094 1025.39 215.727 1020.18 214.129C1015.04 212.531 1009.56 211.732 1003.76 211.732C993.284 211.732 983.904 214.365 975.618 219.633C967.391 224.9 960.88 232.624 956.086 242.804C951.351 252.984 948.984 265.413 948.984 280.091C948.984 294.887 951.351 307.375 956.086 317.555C960.88 327.735 967.42 335.429 975.706 340.638C983.992 345.846 993.314 348.45 1003.67 348.45C1009.41 348.45 1014.86 347.681 1020.01 346.142C1025.22 344.544 1029.92 342.206 1034.12 339.129C1038.32 336.051 1041.88 332.293 1044.78 327.854C1047.74 323.356 1049.78 318.206 1050.9 312.406L1078.6 312.495C1077.12 321.432 1074.25 329.659 1069.99 337.175C1065.79 344.633 1060.37 351.084 1053.74 356.529C1047.17 361.915 1039.66 366.088 1031.19 369.047C1022.73 372.006 1013.5 373.486 1003.49 373.486C987.751 373.486 973.724 369.757 961.413 362.3C949.102 354.783 939.396 344.041 932.294 330.073C925.251 316.105 921.729 299.445 921.729 280.091C921.729 260.678 925.28 244.017 932.382 230.109C939.485 216.141 949.191 205.428 961.502 197.971C973.812 190.454 987.81 186.696 1003.49 186.696C1013.14 186.696 1022.14 188.087 1030.48 190.869C1038.89 193.591 1046.43 197.616 1053.12 202.942C1059.81 208.21 1065.34 214.661 1069.72 222.296C1074.1 229.872 1077.06 238.543 1078.6 248.308Z" fill="#05FF00"/>
</g>
<defs>
<clipPath id="clip0_0_1">
<rect width="1190" height="640" fill="white"/>
</clipPath>
</defs>
</svg>
