<svg width="1190" height="720" viewBox="0 0 1190 720" fill="none" xmlns="http://www.w3.org/2000/svg">
<g clip-path="url(#clip0_0_1)">
<path d="M373.189 264.9C374.529 250.335 369.508 239.057 358.133 231.065C346.922 223.074 329.186 219.078 304.927 219.078C288.863 219.078 275.144 220.689 263.765 223.911C252.39 227.005 243.437 231.387 236.912 237.059C230.386 242.601 226.287 249.046 224.615 256.393C223.107 262.194 223.528 267.349 225.869 271.861C228.21 276.372 232.309 280.368 238.166 283.848C244.191 287.328 251.636 290.357 260.502 292.935C269.54 295.513 279.661 297.769 290.872 299.702L333.035 307.436C357.461 311.69 378.628 317.361 396.532 324.451C414.601 331.411 429.24 339.854 440.45 349.779C451.661 359.575 459.359 370.854 463.54 383.615C467.725 396.376 468.057 410.681 464.544 426.536C459.191 451.543 446.39 473.004 426.145 490.921C406.067 508.836 379.8 522.565 347.34 532.102C315.048 541.641 277.485 546.41 234.653 546.41C191.819 546.41 155.431 541.446 125.479 531.521C95.6974 521.469 74.1138 506.322 60.7284 486.086C47.3433 465.851 43.746 440.329 49.9365 409.522H168.647C166.806 422.283 168.897 432.918 174.922 441.425C181.112 449.932 190.65 456.375 203.533 460.758C216.416 465.141 231.976 467.332 250.213 467.332C266.945 467.332 281.584 465.592 294.134 462.112C306.85 458.632 316.971 453.798 324.501 447.611C332.198 441.423 336.883 434.333 338.556 426.343C340.229 418.996 338.638 412.616 333.788 407.201C329.103 401.788 321.073 397.083 309.694 393.088C298.484 389.091 283.76 385.482 265.523 382.261L214.072 372.594C171.574 364.602 139.367 351.841 117.449 334.311C95.6974 316.781 88.0009 293 94.359 262.967C99.7128 238.348 112.931 216.822 134.013 198.39C155.263 179.958 182.116 165.65 214.576 155.468C247.201 145.156 283.092 140 322.242 140C362.064 140 395.528 145.22 422.632 155.661C449.906 165.972 469.565 180.538 481.612 199.357C493.824 218.047 497.337 239.895 492.151 264.9H373.189Z" fill="#0E0E0E"/>
<mask id="mask0_0_1" style="mask-type:luminance" maskUnits="userSpaceOnUse" x="0" y="0" width="1190" height="720">
<path d="M1190 0H0V720H1190V0Z" fill="white"/>
</mask>
<g mask="url(#mask0_0_1)">
<path d="M585 170.25C691.379 170.25 777.75 256.621 777.75 363C777.75 469.379 691.379 555.75 585 555.75C478.621 555.75 392.25 469.379 392.25 363C392.25 256.621 478.621 170.25 585 170.25Z" stroke="#FF3D00" stroke-width="19.1"/>
<mask id="mask1_0_1" style="mask-type:luminance" maskUnits="userSpaceOnUse" x="0" y="0" width="1190" height="720">
<path d="M0 0H1190V720H0V0Z" fill="white"/>
</mask>
<g mask="url(#mask1_0_1)">
<mask id="mask2_0_1" style="mask-type:luminance" maskUnits="userSpaceOnUse" x="396" y="167" width="387" height="387">
<path d="M589.641 167.609C483.003 167.609 396.555 254.057 396.555 360.695C396.555 467.333 483.003 553.781 589.641 553.781C696.279 553.781 782.727 467.333 782.727 360.695C782.727 254.057 696.279 167.609 589.641 167.609Z" fill="white"/>
</mask>
<g mask="url(#mask2_0_1)">
<path d="M585 170.25C645.985 170.25 695.5 256.621 695.5 363C695.5 469.379 645.985 555.75 585 555.75C524.015 555.75 474.5 469.379 474.5 363C474.5 256.621 524.015 170.25 585 170.25Z" stroke="#FF3D00" stroke-width="19.1"/>
<path d="M585 808.25C702.693 808.25 798.25 866.839 798.25 939C798.25 1011.16 702.693 1069.75 585 1069.75C467.307 1069.75 371.75 1011.16 371.75 939C371.75 866.839 467.307 808.25 585 808.25ZM585 1204.25C702.693 1204.25 798.25 1262.84 798.25 1335C798.25 1407.16 702.693 1465.75 585 1465.75C467.307 1465.75 371.75 1407.16 371.75 1335C371.75 1262.84 467.307 1204.25 585 1204.25ZM585 34.25C702.69 34.25 798.25 92.84 798.25 165C798.25 237.16 702.69 295.75 585 295.75C467.31 295.75 371.75 237.16 371.75 165C371.75 92.84 467.31 34.25 585 34.25ZM585 430.25C702.69 430.25 798.25 488.84 798.25 561C798.25 633.16 702.69 691.75 585 691.75C467.31 691.75 371.75 633.16 371.75 561C371.75 488.84 467.31 430.25 585 430.25Z" stroke="#FF3D00" stroke-width="19.1"/>
<path d="M585 363C691.379 363 777.75 363 777.75 363M585 363C478.621 363 392.25 363 392.25 363M585 363C585 256.621 585 170.25 585 170.25M585 363C585 469.379 585 555.75 585 555.75" stroke="#FF3D00" stroke-width="19.1"/>
</g>
</g>
<mask id="mask3_0_1" style="mask-type:luminance" maskUnits="userSpaceOnUse" x="0" y="0" width="1190" height="720">
<path d="M0 0H1190V720H0V0Z" fill="white"/>
</mask>
<g mask="url(#mask3_0_1)">
<mask id="mask4_0_1" style="mask-type:luminance" maskUnits="userSpaceOnUse" x="396" y="167" width="387" height="387">
<path d="M589.641 167.609C483.003 167.609 396.555 254.057 396.555 360.695C396.555 467.333 483.003 553.781 589.641 553.781C696.279 553.781 782.727 467.333 782.727 360.695C782.727 254.057 696.279 167.609 589.641 167.609Z" fill="white"/>
</mask>
<g mask="url(#mask4_0_1)">
<path d="M585 261.5C641.018 261.5 686.5 306.982 686.5 363C686.5 419.018 641.018 464.5 585 464.5C528.982 464.5 483.5 419.018 483.5 363C483.5 306.982 528.982 261.5 585 261.5Z" fill="#0E0E0E"/>
<path d="M536.981 323.262V339.637H537.022H576.521V417.16H592.87V339.637H632.205V323.262H536.981Z" fill="#F4E9E1"/>
</g>
</g>
<path d="M1142.47 157L1041.64 563.41H951.21L849.18 298.67L787.15 563.41H695C706.622 516.572 786.422 194.944 795.84 157H886.84C911.946 222.883 962.582 355.772 987.72 421.75L1050.9 157H1142.47Z" fill="#0E0E0E"/>
<path d="M441.455 542.12C287.481 515.08 177.5 444.284 177.5 361.3C177.5 255.032 357.86 168.75 580 168.75C802.14 168.75 982.5 255.032 982.5 361.3C982.5 467.568 802.14 553.85 580 553.85C531.326 553.85 484.659 549.708 441.455 542.12Z" stroke="#FF3D00" stroke-width="19.1" stroke-linecap="round" stroke-linejoin="round"/>
<mask id="mask5_0_1" style="mask-type:luminance" maskUnits="userSpaceOnUse" x="696" y="61" width="479" height="242">
<path d="M1175 61L696.934 62L696.867 303L1174.93 302L1175 61Z" fill="white"/>
</mask>
<g mask="url(#mask5_0_1)">
<path d="M1141.62 155.32L1040.79 561.73H950.357L848.327 296.99L786.297 561.73H694.147C705.769 514.892 785.569 193.264 794.987 155.32H885.987C911.093 221.203 961.729 354.092 986.867 420.07L1050.05 155.32H1141.62Z" fill="#0E0E0E"/>
</g>
<path d="M585 170.25C691.379 170.25 777.75 256.621 777.75 363C777.75 469.379 691.379 555.75 585 555.75C478.621 555.75 392.25 469.379 392.25 363C392.25 256.621 478.621 170.25 585 170.25Z" stroke="#FF3D00" stroke-width="19.1"/>
</g>
<path d="M449.5 168.5C381 182.5 402 177.5 360 190C326.4 200 304.333 210.167 297.5 214C295.333 214.833 289.9 217.2 285.5 220H329C371.8 206.4 388.833 201.333 392 200.5L434.5 191.5L470 185.5L449.5 168.5Z" fill="#0E0E0E" stroke="#0E0E0E"/>
<path d="M226.5 466L260.5 467.5L288.5 482.5L328.5 501L354.5 510.5L382 519L352 530L331 523L312 515.5L295 508C290.667 505.833 279.5 500.2 269.5 495L258 488L243 478.5L226.5 466Z" fill="#0E0E0E" stroke="#0E0E0E"/>
</g>
<defs>
<clipPath id="clip0_0_1">
<rect width="1190" height="720" fill="white"/>
</clipPath>
</defs>
</svg>
