<svg width="717" height="360" viewBox="0 0 717 360" fill="none" xmlns="http://www.w3.org/2000/svg">
<path d="M199.406 316.139C180.257 305.619 165.04 290.658 153.806 271.356C142.572 252.053 136.955 229.79 136.955 204.615C136.955 174.232 144.41 145.432 159.321 118.164C174.232 90.9471 194.555 69.0917 220.291 52.6492C246.027 36.2066 274.113 27.9854 304.496 27.9854C329.67 27.9854 351.985 33.4492 371.44 44.4279C390.896 55.4066 405.5 70.3683 415.355 89.4151C425.21 108.462 428.785 129.756 426.027 153.296L371.389 152.479C372.462 138.794 370.215 126.283 364.598 114.896C358.981 103.56 350.555 94.5215 339.321 87.7811C328.087 81.0917 315.066 77.7215 300.308 77.7215C280.036 77.7215 261.755 83.9003 245.466 96.2066C229.176 108.513 216.461 124.343 207.27 143.645C198.078 162.947 193.534 182.198 193.534 201.347C193.534 217.228 196.7 231.27 202.981 243.424C209.261 255.628 218.096 265.075 229.483 271.764C240.819 278.453 253.789 281.824 268.291 281.824C281.159 281.824 293.772 278.964 306.078 273.194C318.385 267.424 329.057 259.356 338.096 248.939C347.134 238.522 353.823 226.624 358.215 213.194L412.036 223.049C406.317 243.883 396.104 262.624 381.449 279.322C366.793 296.019 349.33 308.939 329.108 318.13C308.836 327.322 287.236 331.866 264.206 331.866C241.176 331.866 218.453 326.607 199.304 316.036L199.406 316.139Z" fill="#2835F8"/>
<path d="M337.582 201.343C337.582 217.224 340.748 231.267 347.029 243.42C353.309 255.624 362.143 265.071 373.531 271.76C384.867 278.45 397.837 281.82 412.339 281.82C425.207 281.82 437.82 278.96 450.126 273.19C462.433 267.42 473.105 259.352 482.143 248.935C491.182 238.518 497.871 226.62 502.263 213.19L556.084 223.045C550.365 243.879 540.152 262.62 525.497 279.318C510.841 296.016 493.378 308.935 473.156 318.126C452.884 327.318 431.284 331.862 408.254 331.862C385.224 331.862 362.501 326.603 343.352 316.033C324.203 305.513 308.986 290.552 297.752 271.25C286.518 251.948 280.901 229.684 280.901 204.509" fill="#2835F8"/>
<path d="M351.369 143.645C353.463 139.253 355.76 135.066 358.212 130.981C357.241 127.202 356.016 123.526 354.28 120.002C349.633 110.607 342.841 103.304 333.446 97.6875C329.412 95.2875 325.071 93.5003 320.526 92.1215C314.143 100.19 308.373 108.819 303.267 118.113C288.356 145.381 280.901 174.181 280.901 204.564C280.901 227.236 285.497 247.458 294.586 265.381C296.833 264.564 299.08 263.696 301.275 262.675C312.05 257.619 321.548 250.47 329.463 241.33C333.701 236.428 337.377 231.117 340.441 225.398C338.603 217.892 337.582 209.875 337.582 201.296C337.582 182.147 342.178 162.896 351.318 143.594L351.369 143.645ZM559.352 89.4151C549.497 70.3683 534.841 55.4066 515.437 44.4279C495.982 33.5002 473.667 27.9854 448.492 27.9854C426.841 27.9854 406.365 32.2236 387.114 40.5981C402.331 51.0662 414.535 64.2917 423.471 80.0705C430.212 78.4875 437.156 77.6705 444.407 77.6705C459.216 77.6705 472.186 81.0407 483.42 87.73C494.654 94.4194 503.08 103.458 508.697 114.845C514.314 126.232 516.56 138.743 515.488 152.428L570.126 153.245C572.884 129.704 569.309 108.411 559.454 89.3641L559.352 89.4151ZM482.143 248.939C473.105 259.356 462.433 267.424 450.126 273.194C437.82 278.964 425.207 281.824 412.339 281.824C406.62 281.824 401.207 281.16 395.948 280.087C394.109 282.436 392.22 284.734 390.229 286.981C378.79 300.053 365.565 311.032 350.807 319.866C368.067 327.883 387.216 331.917 408.254 331.917C431.233 331.917 452.884 327.322 473.156 318.181C493.429 308.99 510.892 296.07 525.497 279.373C540.152 262.675 550.365 243.934 556.084 223.1L502.263 213.245C497.871 226.675 491.182 238.573 482.143 248.99V248.939Z" fill="#2835F8"/>
<path d="M358.213 360C160.698 360 0 279.268 0 180C0 80.7319 160.698 0 358.213 0C555.728 0 716.426 80.7319 716.426 180C716.426 279.268 555.728 360 358.213 360ZM358.213 15.4723C169.226 15.4723 15.4723 89.2596 15.4723 180C15.4723 270.74 169.226 344.528 358.213 344.528C547.2 344.528 700.953 270.74 700.953 180C700.953 89.2596 547.2 15.4723 358.213 15.4723Z" fill="#2835F8"/>
<path d="M78.9491 201.346C91.3861 201.346 101.468 191.264 101.468 178.827C101.468 166.39 91.3861 156.308 78.9491 156.308C66.5121 156.308 56.4299 166.39 56.4299 178.827C56.4299 191.264 66.5121 201.346 78.9491 201.346Z" fill="#2835F8"/>
<path d="M631.754 201.346C644.191 201.346 654.273 191.264 654.273 178.827C654.273 166.39 644.191 156.308 631.754 156.308C619.317 156.308 609.235 166.39 609.235 178.827C609.235 191.264 619.317 201.346 631.754 201.346Z" fill="#2835F8"/>
</svg>
