<svg width="612" height="360" viewBox="0 0 612 360" fill="none" xmlns="http://www.w3.org/2000/svg">
<path d="M276.914 359.899L236.794 33.2332L55.8213 359.848H0L202.69 0H284.714L333.602 359.899H276.914Z" fill="#2835F8"/>
<path d="M415.727 359.897C386.975 359.897 360.824 353.618 338.036 341.315C315.3 329.013 297.05 311.349 283.744 288.837C270.388 266.273 263.659 239.829 263.659 210.22C263.659 174.18 272.784 139.568 290.728 107.254C308.724 74.9394 333.55 48.6999 364.545 29.2501C395.387 9.8513 429.491 0.0498047 465.941 0.0498047C496.018 0.0498047 523.037 6.53309 546.181 19.3976C569.172 32.1599 586.708 49.823 598.332 71.8764C609.139 92.3983 613.523 115.473 611.535 140.64L556.376 139.823C556.631 124.559 553.471 110.266 546.945 97.248C539.401 82.2394 527.93 70.1407 512.892 61.2581C497.904 52.4776 480.368 47.9852 460.843 47.9852C434.232 47.9852 409.865 56.0511 388.505 71.9785C367.451 87.6507 350.73 108.07 338.903 132.574C327.076 157.027 321.111 181.786 321.111 206.188C321.111 226.658 325.343 245.036 333.652 260.862C342.064 276.84 353.992 289.449 369.184 298.281C384.325 307.061 401.708 311.554 420.927 311.554C437.852 311.554 454.675 307.776 470.835 300.374C486.995 292.972 501.167 282.404 512.994 268.978C523.546 257.033 531.754 243.352 537.463 228.292L591.704 238.093C584.567 259.892 572.944 279.903 557.039 297.719C539.503 317.424 518.296 332.892 493.979 343.715C469.713 354.537 443.408 360 415.829 360L415.727 359.897Z" fill="#2835F8"/>
<path d="M187.701 201.44C221.04 201.44 254.074 224.208 259.019 264.128C264.27 306.704 231.083 344.327 188.261 344.327C133.511 344.327 99.2022 285.11 126.323 237.532C140.393 212.824 164.149 201.44 187.701 201.44ZM187.701 185.972C156.502 185.972 128.566 202.359 112.915 229.874C97.418 257.084 97.5199 289.5 113.272 316.556C128.974 343.663 157.012 359.795 188.312 359.795C213.19 359.795 236.844 349.126 253.31 330.442C269.776 311.809 277.473 286.948 274.415 262.24C268.246 212.16 226.138 185.972 187.752 185.972H187.701Z" fill="#2835F8"/>
</svg>
