<svg width="694" height="360" viewBox="0 0 694 360" fill="none" xmlns="http://www.w3.org/2000/svg">
<path d="M96.3351 0.270508H350.524L333.168 64.9732H162.168L140.035 147.649H226.5L221.5 208.757H123.654L100.803 294H273.857L256.243 359.73H0L96.3351 0.270508Z" fill="#2835F8"/>
<path fill-rule="evenodd" clip-rule="evenodd" d="M337.449 302.326C405.095 302.326 459.933 247.488 459.933 179.842C459.933 112.196 405.095 57.3584 337.449 57.3584C269.803 57.3584 214.965 112.196 214.965 179.842C214.965 247.488 269.803 302.326 337.449 302.326ZM240.916 173.956H275.151C275.647 157.751 278.148 142.431 282.264 128.823C274.44 126.668 267.24 124.055 260.837 121.048C249.374 135.853 242.133 154.09 240.916 173.956ZM269.123 111.669C274.279 113.874 280.008 115.84 286.212 117.514C288.015 113 290.012 108.739 292.185 104.769C295.108 99.43 298.413 94.5175 302.06 90.2037C289.616 95.0527 278.428 102.416 269.123 111.669ZM371.938 90.2056C375.584 94.519 378.889 99.4307 381.811 104.769C383.984 108.739 385.981 113 387.784 117.514C393.987 115.84 399.715 113.875 404.871 111.67C395.566 102.417 384.381 95.0546 371.938 90.2056ZM413.157 121.049C424.619 135.853 431.861 154.09 433.077 173.956H398.845C398.349 157.751 395.848 142.43 391.732 128.823C399.555 126.668 406.754 124.055 413.157 121.049ZM433.077 185.906C431.86 205.771 424.619 224.008 413.156 238.813C406.754 235.806 399.555 233.194 391.732 231.039C395.848 217.432 398.349 202.111 398.845 185.906H433.077ZM404.871 248.192C399.715 245.987 393.987 244.022 387.784 242.348C385.981 246.862 383.984 251.122 381.811 255.092C378.889 260.431 375.584 265.342 371.938 269.656C384.381 264.807 395.566 257.444 404.871 248.192ZM337.008 288.143C396.767 288.137 445.209 239.691 445.209 179.931C445.209 120.167 396.761 71.7183 336.997 71.7183C277.233 71.7183 228.784 120.167 228.784 179.931C228.784 239.695 277.233 288.143 336.997 288.143C336.997 288.143 336.997 288.143 336.998 288.143C336.998 288.143 336.998 288.143 336.998 288.143M302.06 269.658C298.413 265.344 295.108 260.431 292.185 255.092C290.012 251.122 288.015 246.861 286.212 242.348C280.008 244.022 274.279 245.987 269.123 248.193C278.429 257.446 289.616 264.809 302.06 269.658ZM260.837 238.813C267.241 235.807 274.44 233.194 282.264 231.038C278.148 217.431 275.647 202.111 275.151 185.906H240.916C242.133 205.772 249.375 224.009 260.837 238.813ZM293.912 131.597C290.042 144.151 287.609 158.531 287.107 173.956H331.023V135.68C317.929 135.349 305.411 133.932 293.912 131.597ZM302.667 249.355C301.007 246.321 299.45 243.073 298.012 239.634C308.182 237.674 319.297 236.448 331.023 236.135V275.47C320.786 272.992 310.774 264.165 302.667 249.355ZM293.912 228.265C305.411 225.929 317.929 224.513 331.023 224.182V185.906H287.107C287.609 201.331 290.042 215.711 293.912 228.265ZM342.973 275.471V236.135C354.7 236.448 365.815 237.674 375.984 239.635C374.546 243.073 372.99 246.321 371.329 249.355C363.222 264.165 353.21 272.992 342.973 275.471ZM342.973 224.182C356.067 224.513 368.585 225.93 380.085 228.265C383.955 215.711 386.387 201.331 386.889 185.906H342.973V224.182ZM298.012 120.228C308.181 122.188 319.296 123.414 331.023 123.727V84.391C320.786 86.8695 310.774 95.6964 302.667 110.507C301.006 113.541 299.45 116.788 298.012 120.228ZM342.973 135.68V173.956H386.889C386.387 158.531 383.955 144.151 380.085 131.597C368.586 133.932 356.067 135.348 342.973 135.68ZM375.984 120.227C365.815 122.188 354.7 123.414 342.973 123.727V84.3908C353.21 86.8692 363.222 95.6961 371.329 110.507C372.99 113.541 374.546 116.788 375.984 120.227Z" fill="#2835F8"/>
<path fill-rule="evenodd" clip-rule="evenodd" d="M342.407 294.853C351.125 311.705 363.593 325.637 379.813 336.649H379.862C402.744 352.216 431.128 360 464.868 360C494.761 360 523.729 353.822 551.87 341.513C580.01 329.205 604.548 311.984 625.581 289.946C646.564 267.908 661.56 243.243 670.469 216L594.616 210.162C589.212 225.389 580.692 239.011 569.056 251.027C557.42 263.043 544.129 272.432 529.133 279.243C514.187 286.054 499.045 289.459 483.807 289.459C465.014 289.459 449.385 284.741 436.97 275.351C430.694 270.605 425.5 264.913 421.389 258.289C401.397 279.55 373.508 293.3 342.407 294.853ZM392.792 76.4778C413.34 87.8399 430.092 105.23 440.66 126.262C441.398 125.275 442.148 124.296 442.91 123.324C455.958 106.638 471.197 93.5027 488.529 83.9189C505.861 74.3351 523.924 69.5676 542.766 69.5676C558.004 69.5676 571.247 72.827 582.493 79.2973C593.74 85.7676 602.017 94.7676 607.372 106.297C612.727 117.827 614.237 130.865 611.948 145.459L690.723 138.649C696.468 112.378 694.666 88.6378 685.27 67.3784C675.873 46.1189 660.343 29.5784 638.677 17.7568C617.012 5.93514 591.257 0 561.412 0C527.624 0 495.102 7.78378 463.845 23.3514C436.919 36.7413 413.235 54.4501 392.792 76.4778Z" fill="#2835F8"/>
</svg>
