<svg width="314" height="186" viewBox="0 0 314 186" fill="none" xmlns="http://www.w3.org/2000/svg">
<g clip-path="url(#clip0_0_1)">
<path d="M40.4 185.6L52 174.6C29.2 153.4 16.8 124.8 16.8 92.9999C16.8 61.1999 29.2 32.5999 52 11.3999L40.4 0.399902C14 24.9999 0 57.3999 0 92.9999C0 128.6 14 161 40.4 185.6Z" fill="#FF3D00"/>
<path d="M273.6 185.6L262 174.6C284.8 153.4 297.2 124.8 297.2 92.9999C297.2 61.1999 284.8 32.5999 262 11.3999L273.6 0.399902C300 24.9999 314 57.3999 314 92.9999C314 128.6 300 161 273.6 185.6Z" fill="#FF3D00"/>
<path d="M187.761 56.125C188.216 49.7045 186.511 44.733 182.648 41.2102C178.841 37.6875 172.818 35.9261 164.58 35.9261C159.125 35.9261 154.466 36.6364 150.602 38.0568C146.739 39.4205 143.699 41.3523 141.483 43.8523C139.267 46.2955 137.875 49.1364 137.307 52.375C136.795 54.9318 136.938 57.2045 137.733 59.1932C138.528 61.1818 139.92 62.9432 141.909 64.4773C143.955 66.0114 146.483 67.3466 149.494 68.483C152.563 69.6193 156 70.6136 159.807 71.4659L174.125 74.875C182.42 76.75 189.608 79.25 195.688 82.375C201.824 85.4432 206.795 89.1648 210.602 93.5398C214.409 97.858 217.023 102.83 218.443 108.455C219.864 114.08 219.977 120.386 218.784 127.375C216.966 138.398 212.619 147.858 205.744 155.756C198.926 163.653 190.006 169.705 178.983 173.909C168.017 178.114 155.261 180.216 140.716 180.216C126.17 180.216 113.813 178.028 103.642 173.653C93.5284 169.222 86.1989 162.545 81.6534 153.625C77.108 144.705 75.8864 133.455 77.9886 119.875H118.301C117.676 125.5 118.386 130.188 120.432 133.938C122.534 137.688 125.773 140.528 130.148 142.46C134.523 144.392 139.807 145.358 146 145.358C151.682 145.358 156.653 144.591 160.915 143.057C165.233 141.523 168.67 139.392 171.227 136.665C173.841 133.937 175.432 130.812 176 127.29C176.568 124.051 176.028 121.239 174.381 118.852C172.79 116.466 170.063 114.392 166.199 112.631C162.392 110.869 157.392 109.278 151.199 107.858L133.727 103.597C119.295 100.074 108.358 94.4489 100.915 86.7216C93.5284 78.9943 90.9148 68.5114 93.0739 55.2727C94.892 44.4205 99.3807 34.9318 106.54 26.8068C113.756 18.6818 122.875 12.375 133.898 7.88636C144.977 3.34091 157.165 1.06818 170.46 1.06818C183.983 1.06818 195.347 3.36931 204.551 7.97158C213.813 12.517 220.489 18.9375 224.58 27.2329C228.727 35.4716 229.92 45.1023 228.159 56.125H187.761Z" fill="black"/>
</g>
<defs>
<clipPath id="clip0_0_1">
<rect width="314" height="186" fill="white"/>
</clipPath>
</defs>
</svg>
