<svg width="340" height="185" viewBox="0 0 340 185" fill="none" xmlns="http://www.w3.org/2000/svg">
<path d="M40.4 185L52 174.012C29.2 152.835 16.8 124.266 16.8 92.5C16.8 60.7343 29.2 32.1652 52 10.9881L40.4 0C14 24.5734 0 56.9384 0 92.5C0 128.062 14 160.427 40.4 185Z" fill="#FF3D00"/>
<path d="M299.6 185L288 174.012C310.8 152.835 323.2 124.266 323.2 92.5C323.2 60.7343 310.8 32.1652 288 10.9881L299.6 0C326 24.5734 340 56.9384 340 92.5C340 128.062 326 160.427 299.6 185Z" fill="#FF3D00"/>
<path d="M113.971 0H155.458L201.447 120.512L230.251 0H272L226.029 185H184.804L138.291 64.4875L110.01 185H68L113.971 0Z" fill="#0E0E0E"/>
</svg>
