<svg width="303" height="186" viewBox="0 0 303 186" fill="none" xmlns="http://www.w3.org/2000/svg">
<path d="M40.4 185.2L52 174.2C29.2 153 16.8 124.4 16.8 92.6C16.8 60.8 29.2 32.2 52 11L40.4 0C14 24.6 0 57 0 92.6C0 128.2 14 160.6 40.4 185.2Z" fill="#FF3D00"/>
<path d="M262.6 185.2L251 174.2C273.8 153 286.2 124.4 286.2 92.6C286.2 60.8 273.8 32.2 251 11L262.6 0C289 24.6 303 57 303 92.6C303 128.2 289 160.6 262.6 185.2Z" fill="#FF3D00"/>
<g clip-path="url(#clip0_1642_34960)">
<path d="M151.5 176C197.616 176 235 138.616 235 92.5C235 46.3842 197.616 9 151.5 9C105.384 9 68 46.3842 68 92.5C68 138.616 105.384 176 151.5 176Z" fill="#0E0E0E"/>
<path d="M112.186 73.6888V60.1895H190.814V73.6888H158.334V137.599H144.834V73.6888H112.219H112.186Z" fill="#F4E9E1"/>
</g>
<defs>
<clipPath id="clip0_1642_34960">
<rect width="167" height="167" fill="white" transform="translate(68 9)"/>
</clipPath>
</defs>
</svg>
