<svg width="96" height="20" viewBox="0 0 96 20" fill="none" xmlns="http://www.w3.org/2000/svg">
<path d="M35.2366 0.710938H38.875L45.0617 11.7019L51.2484 0.710947H54.8081V18.7712H51.8395V4.92937L46.4147 14.5142H43.63L38.2051 4.92937V18.7712H35.2366V0.710938Z" fill="#F4E9E1"/>
<path d="M64.3825 19.0956C63.0076 19.0956 61.7992 18.7968 60.7572 18.199C59.7151 17.6013 58.9029 16.7736 58.3206 15.7158C57.7382 14.6579 57.447 13.4453 57.4471 12.0779C57.4471 10.6933 57.7317 9.46782 58.3009 8.40133C58.8701 7.33506 59.6604 6.50082 60.6719 5.8986C61.6833 5.29677 62.8458 4.99577 64.1593 4.99561C65.464 4.99561 66.587 5.29875 67.5285 5.90503C68.4697 6.51147 69.1943 7.36076 69.7023 8.4529C70.2101 9.54519 70.464 10.8266 70.4642 12.2972V13.0969H60.3894C60.5734 14.1979 61.0266 15.0644 61.749 15.6963C62.4714 16.3285 63.3843 16.6445 64.4876 16.6444C65.372 16.6444 66.1339 16.5154 66.7732 16.2574C67.4123 15.9995 68.0122 15.6082 68.5727 15.0836L70.1489 16.9799C68.5813 18.3905 66.6592 19.0957 64.3825 19.0956ZM66.5499 8.38188C65.928 7.75847 65.1136 7.44671 64.1067 7.44659C63.1259 7.44659 62.3049 7.76484 61.6439 8.40132C60.9826 9.03775 60.5645 9.89347 60.3894 10.9685H67.6139C67.5262 9.8676 67.1715 9.00541 66.5499 8.38188Z" fill="#F4E9E1"/>
<path d="M74.0637 7.70314H71.3315V5.31657H74.0637V1.36914H76.9272V5.31657H81.0779V7.70314H76.9272V13.7533C76.9272 14.7594 77.1023 15.4775 77.4526 15.9076C77.8027 16.3377 78.4025 16.5527 79.2521 16.5526C79.6285 16.5526 79.9481 16.5375 80.211 16.5074C80.4737 16.4774 80.7627 16.4366 81.0779 16.3848V18.7455C80.7182 18.8477 80.3517 18.9254 79.9811 18.9778C79.5571 19.0391 79.129 19.0693 78.7004 19.0681C75.6091 19.0681 74.0636 17.4083 74.0637 14.0887V7.70314Z" fill="#F4E9E1"/>
<path d="M95.9999 18.7716H93.189V16.8881C92.6898 17.5934 92.055 18.1374 91.2844 18.52C90.5137 18.9025 89.638 19.0939 88.6573 19.0942C87.4489 19.0942 86.3784 18.791 85.4458 18.1846C84.5131 17.5783 83.7798 16.7441 83.2456 15.682C82.7114 14.6199 82.4443 13.4051 82.4443 12.0377C82.4443 10.6617 82.7158 9.44477 83.2588 8.38685C83.8016 7.32915 84.5525 6.49925 85.5114 5.89714C86.4703 5.29531 87.5715 4.99431 88.8149 4.99414C89.7519 4.99414 90.5925 5.17262 91.3369 5.52958C92.0712 5.87842 92.7071 6.39887 93.189 7.04529V5.31672H95.9999V18.7716ZM93.1365 10.0253C92.8298 9.25985 92.346 8.65566 91.685 8.2127C91.0237 7.76984 90.2597 7.54842 89.3929 7.54842C88.1668 7.54842 87.1904 7.95261 86.4638 8.76098C85.7368 9.56941 85.3734 10.6617 85.3736 12.0377C85.3736 13.4224 85.7238 14.519 86.4244 15.3273C87.1248 16.1357 88.0749 16.5399 89.2747 16.5399C90.159 16.5399 90.9471 16.3162 91.639 15.869C92.3307 15.422 92.8298 14.82 93.1365 14.063L93.1365 10.0253Z" fill="#F4E9E1"/>
<path d="M8.36563 0.101562C8.35626 0.101562 8.34695 0.101595 8.3376 0.101643L8.29932 3.20716C8.30808 3.20707 8.31683 3.207 8.3256 3.207H8.32562C10.4069 3.207 12.0213 4.81867 15.5302 10.6233L15.7441 10.9767L15.7581 10.9999L17.7224 8.10541L17.7088 8.08306C17.2465 7.34469 16.8024 6.66533 16.3765 6.04499C15.8826 5.32624 15.4102 4.68414 14.9518 4.11087C12.6305 1.20821 10.6888 0.101562 8.36563 0.101562Z" fill="#F4E9E1"/>
<path d="M8.33669 0.101643C6.00228 0.113437 3.9385 1.59594 2.44827 3.86448C2.44391 3.87112 2.43954 3.87778 2.43518 3.88444L5.17067 5.34668C5.17511 5.34007 5.17956 5.33345 5.18403 5.32687C6.05423 4.0401 7.13717 3.21938 8.29841 3.20716C8.30717 3.20707 8.31592 3.207 8.32469 3.207L8.36471 0.101562C8.35535 0.101562 8.34604 0.101595 8.33669 0.101643Z" fill="#F4E9E1"/>
<path d="M2.44885 3.86426C2.44449 3.8709 2.44013 3.87755 2.43577 3.88422C1.45652 5.3813 0.726525 7.2184 0.332013 9.20029C0.330305 9.20886 0.328602 9.21745 0.326904 9.22605L3.40011 9.93819C3.40172 9.92959 3.40333 9.92098 3.40495 9.91237C3.73344 8.17062 4.35884 6.55521 5.17124 5.34646C5.17568 5.33985 5.18014 5.33323 5.1846 5.32665L2.44885 3.86426Z" fill="#F4E9E1"/>
<path d="M3.40493 9.91276L0.331993 9.20068C0.330284 9.20926 0.328581 9.21785 0.326884 9.22644C0.111762 10.3164 0.00231846 11.4239 2.22802e-05 12.5342C4.22421e-06 12.5431 -2.84278e-06 12.5521 1.02637e-06 12.5611L3.15169 12.838C3.15144 12.829 3.15118 12.8201 3.15097 12.811C3.14942 12.7466 3.14863 12.6814 3.14861 12.6152C3.15018 11.7174 3.23435 10.8215 3.40009 9.93858C3.4017 9.92998 3.40331 9.92138 3.40493 9.91276Z" fill="#F4E9E1"/>
<path d="M3.24755 13.8032C3.19102 13.4841 3.15898 13.1613 3.15169 12.8375C3.15144 12.8285 3.15118 12.8196 3.15097 12.8106L2.22802e-05 12.5337C4.22421e-06 12.5427 -2.84278e-06 12.5516 1.02637e-06 12.5606V12.5624C1.02637e-06 13.2533 0.0586732 13.9003 0.172703 14.498C0.174351 14.5066 0.175972 14.5151 0.177645 14.5237L3.25232 13.8291C3.2507 13.8205 3.24913 13.8119 3.24755 13.8032Z" fill="#F4E9E1"/>
<path d="M3.96514 15.4057C3.62219 15.0381 3.37947 14.5078 3.25186 13.8296C3.25025 13.821 3.24868 13.8123 3.2471 13.8037L0.172241 14.4984C0.173889 14.5071 0.175511 14.5156 0.177184 14.5242C0.409594 15.7226 0.865389 16.7213 1.51813 17.4769C1.52393 17.4836 1.52975 17.4903 1.5356 17.497L3.98346 15.4251C3.97734 15.4187 3.9712 15.4122 3.96514 15.4057Z" fill="#F4E9E1"/>
<path d="M13.0753 6.81494C11.2224 9.60616 10.0999 11.3569 10.0999 11.3569C7.63169 15.1568 6.77781 16.0084 5.4036 16.0084C4.83018 16.0084 4.35113 15.8079 3.98413 15.4246C3.97802 15.4182 3.97188 15.4117 3.96582 15.4053L1.5188 17.4764C1.5246 17.4831 1.53043 17.4898 1.53627 17.4965C2.43755 18.5283 3.70972 19.1008 5.28353 19.1008C7.6646 19.1008 9.37709 17.9983 12.4214 12.772C12.4214 12.772 13.6905 10.571 14.5635 9.05492C14.0227 8.1974 13.5306 7.45503 13.0753 6.81494Z" fill="#F4E9E1"/>
<path d="M16.3775 2.40918C16.3713 2.41569 16.3649 2.42235 16.3587 2.42888C15.8721 2.93802 15.4051 3.50661 14.9508 4.10987C15.4092 4.68314 15.8825 5.32649 16.3765 6.04524C16.9586 5.16277 17.502 4.44804 18.0347 3.90024C18.041 3.89374 18.0472 3.88743 18.0535 3.88098L16.3775 2.40918Z" fill="#F4E9E1"/>
<path d="M25.374 2.13598C24.0818 0.853859 22.5411 0.101562 20.8939 0.101562C19.157 0.101562 17.6961 1.03632 16.3784 2.40959C16.3721 2.4161 16.3657 2.42276 16.3595 2.42929L18.0355 3.90065C18.0418 3.89415 18.048 3.88784 18.0543 3.88139C18.9224 2.9946 19.7625 2.55185 20.6938 2.55185H20.6938C21.6961 2.55185 22.6345 3.01526 23.4472 3.82768C23.4536 3.83404 23.4599 3.84036 23.4663 3.84677L25.3933 2.15507C25.3869 2.14867 25.3804 2.14235 25.374 2.13598Z" fill="#F4E9E1"/>
<path d="M29.1094 12.1255C29.037 8.00889 27.5702 4.32866 25.393 2.15532C25.3865 2.14892 25.3801 2.1426 25.3737 2.13623L23.4469 3.82792C23.4533 3.83429 23.4596 3.8406 23.4659 3.84702C25.1039 5.49938 26.2273 8.57283 26.3295 12.1246C26.3297 12.1336 26.33 12.1425 26.3303 12.1515L29.1098 12.1523C29.1097 12.1434 29.1096 12.1345 29.1094 12.1255Z" fill="#F4E9E1"/>
<path d="M29.1093 12.1517C29.1091 12.1428 29.109 12.1338 29.1089 12.1249L26.3289 12.124C26.3292 12.133 26.3294 12.1419 26.3297 12.1508C26.3343 12.3175 26.3365 12.4853 26.3365 12.654C26.3365 13.6224 26.1892 14.4052 25.8897 14.9704C25.8853 14.9787 25.8807 14.9871 25.8762 14.9954L27.9488 17.1124C27.954 17.1048 27.959 17.0971 27.9641 17.0894C28.7166 15.9492 29.1116 14.3652 29.1116 12.4443C29.1116 12.3466 29.1108 12.249 29.1093 12.1517Z" fill="#F4E9E1"/>
<path d="M25.8905 14.9712C25.886 14.9796 25.8815 14.988 25.877 14.9963C25.6178 15.4727 25.2478 15.7904 24.7642 15.9293L25.709 18.8538C25.8342 18.8121 25.956 18.7652 26.0745 18.7132C26.1099 18.6978 26.145 18.6818 26.1798 18.6654C26.1998 18.656 26.2198 18.6464 26.2397 18.6367C26.8645 18.3309 27.3924 17.8799 27.8195 17.2987C27.8455 17.2632 27.8714 17.2274 27.8967 17.191C27.9145 17.1653 27.9322 17.1394 27.9496 17.1133C27.9547 17.1056 27.9598 17.098 27.9649 17.0902L25.8905 14.9712Z" fill="#F4E9E1"/>
<path d="M24.1616 16.0096C23.8447 16.0096 23.5652 15.9633 23.2917 15.8433L22.3242 18.8373C22.868 19.0198 23.448 19.102 24.0949 19.102C24.6909 19.102 25.238 19.0143 25.7339 18.8455L24.7893 15.9221C24.5857 15.982 24.3741 16.0115 24.1616 16.0096Z" fill="#F4E9E1"/>
<path d="M22.2257 14.9848C22.2197 14.978 22.2138 14.9712 22.2078 14.9644L19.9817 17.2381C19.9879 17.2446 19.9941 17.2512 20.0004 17.2577C20.7739 18.0672 21.5124 18.5694 22.3501 18.845L23.3168 15.8532C22.9638 15.7043 22.6224 15.4344 22.2257 14.9848Z" fill="#F4E9E1"/>
<path d="M22.2086 14.9638C21.5409 14.2012 20.7149 12.9315 19.4156 10.8783L17.7224 8.10487L17.7088 8.08252L15.7441 10.9762L15.7581 10.9993L16.9579 12.9814C18.1208 14.8927 19.0682 16.2754 19.9825 17.2375C19.9888 17.2441 19.995 17.2506 20.0012 17.2571L22.2265 14.9842C22.2206 14.9774 22.2146 14.9706 22.2086 14.9638Z" fill="#F4E9E1"/>
</svg>
