<svg xmlns="http://www.w3.org/2000/svg" xmlns:xlink="http://www.w3.org/1999/xlink" viewBox="0 0 1190 720" width="1190" height="720" preserveAspectRatio="xMidYMid meet" style="width: 100%; height: 100%; transform: translate3d(0px, 0px, 0px); content-visibility: visible;"><defs><clipPath id="__lottie_element_1331"><rect width="1190" height="720" x="0" y="0"></rect></clipPath><clipPath id="__lottie_element_1338"><path d="M0,0 L1190,0 L1190,720 L0,720z"></path></clipPath><clipPath id="__lottie_element_1339"><path fill="#ffffff" clip-rule="nonzero" d=" M589.6409912109375,167.60899353027344 C483.00299072265625,167.60899353027344 396.55499267578125,254.0570068359375 396.55499267578125,360.69500732421875 C396.55499267578125,467.3330078125 483.00299072265625,553.781005859375 589.6409912109375,553.781005859375 C696.2789916992188,553.781005859375 782.7269897460938,467.3330078125 782.7269897460938,360.69500732421875 C782.7269897460938,254.0570068359375 696.2789916992188,167.60899353027344 589.6409912109375,167.60899353027344" fill-opacity="1"></path></clipPath><clipPath id="__lottie_element_1342"><path d="M0,0 L1190,0 L1190,720 L0,720z"></path></clipPath><clipPath id="__lottie_element_1343"><path fill="#ffffff" clip-rule="nonzero" d=" M589.6409912109375,167.60899353027344 C483.00299072265625,167.60899353027344 396.55499267578125,254.0570068359375 396.55499267578125,360.69500732421875 C396.55499267578125,467.3330078125 483.00299072265625,553.781005859375 589.6409912109375,553.781005859375 C696.2789916992188,553.781005859375 782.7269897460938,467.3330078125 782.7269897460938,360.69500732421875 C782.7269897460938,254.0570068359375 696.2789916992188,167.60899353027344 589.6409912109375,167.60899353027344" fill-opacity="1"></path></clipPath><clipPath id="__lottie_element_1358"><path fill="#ffffff" clip-rule="nonzero" d=" M257.1180114746094,-297.5249938964844 C257.1180114746094,-297.5249938964844 -220.947998046875,-296.5249938964844 -220.947998046875,-296.5249938964844 C-220.947998046875,-296.5249938964844 -221.01499938964844,-55.525001525878906 -221.01499938964844,-55.525001525878906 C-221.01499938964844,-55.525001525878906 257.052001953125,-56.525001525878906 257.052001953125,-56.525001525878906 C257.052001953125,-56.525001525878906 257.1180114746094,-297.5249938964844 257.1180114746094,-297.5249938964844" fill-opacity="1"></path></clipPath><clipPath id="__lottie_element_1361"><path fill="#ffffff" clip-rule="nonzero" d=" M497.1449890136719,40.25 C497.1449890136719,40.25 256,40.75 256,40.75 C256,40.75 258,268.5 258,268.5 C258,268.5 499.1449890136719,268 499.1449890136719,268 C499.1449890136719,268 497.1449890136719,40.25 497.1449890136719,40.25" fill-opacity="1"></path></clipPath></defs><g clip-path="url(#__lottie_element_1331)"><g transform="matrix(1,0,0,1,585,363)" opacity="1" style="display: block;"><g opacity="1" transform="matrix(1,0,0,1,0,0)"><path stroke-linecap="butt" stroke-linejoin="miter" fill-opacity="0" stroke-miterlimit="4" stroke="rgb(255,61,0)" stroke-opacity="1" stroke-width="19.1" d=" M0,-192.75 C106.37872314453125,-192.75 192.75,-106.37872314453125 192.75,0 C192.75,106.37872314453125 106.37872314453125,192.75 0,192.75 C-106.37872314453125,192.75 -192.75,106.37872314453125 -192.75,0 C-192.75,-106.37872314453125 -106.37872314453125,-192.75 0,-192.75z"></path><g opacity="1" transform="matrix(1,0,0,1,0,0)"></g></g></g><g clip-path="url(#__lottie_element_1338)" transform="matrix(1,0,0,1,0,0)" opacity="1" style="display: block;"><g clip-path="url(#__lottie_element_1339)"><g transform="matrix(1,0,0,1,585,363)" opacity="1" style="display: block;"><g opacity="1" transform="matrix(1,0,0,1,0,0)"><path stroke-linecap="butt" stroke-linejoin="miter" fill-opacity="0" stroke-miterlimit="4" stroke="rgb(255,61,0)" stroke-opacity="1" stroke-width="19.1" d=" M0,-192.75 C60.98495101928711,-192.75 110.5,-106.37872314453125 110.5,0 C110.5,106.37872314453125 60.98495101928711,192.75 0,192.75 C-60.98495101928711,192.75 -110.5,106.37872314453125 -110.5,0 C-110.5,-106.37872314453125 -60.98495101928711,-192.75 0,-192.75z"></path></g></g><g transform="matrix(1,0,0,1,585,1138)" opacity="1" style="display: block;"><g opacity="1" transform="matrix(1,0,0,1,0,0)"><path stroke-linecap="butt" stroke-linejoin="miter" fill-opacity="0" stroke-miterlimit="4" stroke="rgb(255,61,0)" stroke-opacity="1" stroke-width="19.1" d=" M0,-329.75 C117.69267272949219,-329.75 213.25,-271.1609191894531 213.25,-199 C213.25,-126.83907318115234 117.69267272949219,-68.25 0,-68.25 C-117.69267272949219,-68.25 -213.25,-126.83907318115234 -213.25,-199 C-213.25,-271.1609191894531 -117.69267272949219,-329.75 0,-329.75z M0,66.25 C117.69267272949219,66.25 213.25,124.83907318115234 213.25,197 C213.25,269.1609191894531 117.69267272949219,327.75 0,327.75 C-117.69267272949219,327.75 -213.25,269.1609191894531 -213.25,197 C-213.25,124.83907318115234 -117.69267272949219,66.25 0,66.25z M0,-1103.75 C117.69,-1103.75 213.25,-1045.16 213.25,-973 C213.25,-900.84 117.69,-842.25 0,-842.25 C-117.69,-842.25 -213.25,-900.84 -213.25,-973 C-213.25,-1045.16 -117.69,-1103.75 0,-1103.75z M0,-707.75 C117.69,-707.75 213.25,-649.16 213.25,-577 C213.25,-504.84 117.69,-446.25 0,-446.25 C-117.69,-446.25 -213.25,-504.84 -213.25,-577 C-213.25,-649.16 -117.69,-707.75 0,-707.75z"></path><g opacity="1" transform="matrix(1,0,0,1,0,0)"></g><g opacity="1" transform="matrix(1,0,0,1,0,-774)"></g></g></g><g transform="matrix(1,0,0,1,585,363)" opacity="1" style="display: block;"><g opacity="1" transform="matrix(1,0,0,1,0,0)"><path stroke-linecap="butt" stroke-linejoin="miter" fill-opacity="0" stroke-miterlimit="4" stroke="rgb(255,61,0)" stroke-opacity="1" stroke-width="19.1" d=" M0,0 C106.37872314453125,0 192.75,0 192.75,0 C192.75,0 106.37872314453125,0 0,0 C-106.37872314453125,0 -192.75,0 -192.75,0 C-192.75,0 -106.37872314453125,0 0,0z M0,-192.75 C0,-192.75 0,-106.37872314453125 0,0 C0,106.37872314453125 0,192.75 0,192.75 C0,192.75 0,106.37872314453125 0,0 C0,-106.37872314453125 0,-192.75 0,-192.75z"></path></g></g></g></g><g clip-path="url(#__lottie_element_1342)" transform="matrix(1,0,0,1,0,0)" opacity="1" style="display: block;"><g clip-path="url(#__lottie_element_1343)"><g transform="matrix(1,0,0,1,585,363)" opacity="1" style="display: block;"><g opacity="1" transform="matrix(1,0,0,1,0,0)"><path fill="rgb(14,14,14)" fill-opacity="1" d=" M0,-101.5 C56.01784896850586,-101.5 101.5,-56.01784896850586 101.5,0 C101.5,56.01784896850586 56.01784896850586,101.5 0,101.5 C-56.01784896850586,101.5 -101.5,56.01784896850586 -101.5,0 C-101.5,-56.01784896850586 -56.01784896850586,-101.5 0,-101.5z"></path></g></g><g transform="matrix(1,0,0,1,584.593017578125,370.21099853515625)" opacity="1" style="display: block;"><g opacity="1" transform="matrix(1,0,0,1,0,0)"><path fill="rgb(244,233,225)" fill-opacity="1" d=" M-47.61199951171875,-46.94900131225586 C-47.61199951171875,-46.94900131225586 -47.61199951171875,-30.573999404907227 -47.61199951171875,-30.573999404907227 C-47.61199951171875,-30.573999404907227 -47.57099914550781,-30.573999404907227 -47.57099914550781,-30.573999404907227 C-47.57099914550781,-30.573999404907227 -8.071999549865723,-30.573999404907227 -8.071999549865723,-30.573999404907227 C-8.071999549865723,-30.573999404907227 -8.071999549865723,46.94900131225586 -8.071999549865723,46.94900131225586 C-8.071999549865723,46.94900131225586 8.277000427246094,46.94900131225586 8.277000427246094,46.94900131225586 C8.277000427246094,46.94900131225586 8.277000427246094,-30.573999404907227 8.277000427246094,-30.573999404907227 C8.277000427246094,-30.573999404907227 47.61199951171875,-30.573999404907227 47.61199951171875,-30.573999404907227 C47.61199951171875,-30.573999404907227 47.61199951171875,-46.94900131225586 47.61199951171875,-46.94900131225586 C47.61199951171875,-46.94900131225586 -47.61199951171875,-46.94900131225586 -47.61199951171875,-46.94900131225586z"></path></g></g></g></g><g transform="matrix(1,0,0,1,241,357.2070007324219)" opacity="1" style="display: block;"><g opacity="1" transform="matrix(1,0,0,1,0,0)"><path fill="rgb(13,13,13)" fill-opacity="1" d=" M91.00299835205078,-51.07400131225586 C84.61100006103516,-41.01900100708008 75.802001953125,-32.81100082397461 64.61599731445312,-26.409000396728516 C64.61599731445312,-26.409000396728516 64.61599731445312,-26.368000030517578 64.61599731445312,-26.368000030517578 C53.43000030517578,-20.006999969482422 40.891998291015625,-16.805999755859375 26.961000442504883,-16.805999755859375 C26.961000442504883,-16.805999755859375 -47.24300003051758,-16.805999755859375 -47.24300003051758,-16.805999755859375 C-47.24300003051758,-16.805999755859375 -19.422000885009766,-129.41799926757812 -19.422000885009766,-129.41799926757812 C-19.422000885009766,-129.41799926757812 55.92900085449219,-129.41799926757812 55.92900085449219,-129.41799926757812 C64.4520034790039,-129.41799926757812 72.072998046875,-127.48999786376953 78.83399963378906,-123.63200378417969 C85.59500122070312,-119.77400207519531 90.91999816894531,-114.5199966430664 94.77200317382812,-107.9540023803711 C98.6240005493164,-101.38800048828125 100.55000305175781,-93.427001953125 100.55000305175781,-84.1520004272461 C100.55000305175781,-72.16799926757812 97.3949966430664,-61.12900161743164 91.00299835205078,-51.07400131225586z M71.00800323486328,-203.20700073242188 C71.00800323486328,-203.20700073242188 -94.1989974975586,-203.20700073242188 -94.1989974975586,-203.20700073242188 C-94.1989974975586,-203.20700073242188 -195.03500366210938,203.20700073242188 -195.03500366210938,203.20700073242188 C-195.03500366210938,203.20700073242188 -102.31199645996094,203.20700073242188 -102.31199645996094,203.20700073242188 C-102.31199645996094,203.20700073242188 -65.80400085449219,55.75199890136719 -65.80400085449219,55.75199890136719 C-65.80400085449219,55.75199890136719 17.65999984741211,55.75199890136719 17.65999984741211,55.75199890136719 C50.88999938964844,55.75199890136719 81.0459976196289,49.349998474121094 108.08899688720703,36.58700180053711 C135.1320037841797,23.823999404907227 156.39700317382812,6.421999931335449 171.843994140625,-15.656999588012695 C187.29100036621094,-37.736000061035156 195.03500366210938,-62.319000244140625 195.03500366210938,-89.40499877929688 C195.03500366210938,-110.7040023803711 189.91299438476562,-130.0749969482422 179.6699981689453,-147.4759979248047 C169.427001953125,-164.8769989013672 154.83999633789062,-178.50100708007812 135.91000366210938,-188.39199829101562 C116.9800033569336,-198.2830047607422 95.34600067138672,-203.20700073242188 71.00800323486328,-203.20700073242188z"></path></g></g><g transform="matrix(1,0,0,1,3,-3)" opacity="1" style="display: block;"><g opacity="1" transform="matrix(1,0,0,1,239.03500366210938,361.2070007324219)"><g opacity="1" transform="matrix(1,0,0,1,0,0)"><path fill="rgb(13,13,13)" fill-opacity="1" d=" M91.00299835205078,-51.07400131225586 C84.61100006103516,-41.01900100708008 75.802001953125,-32.81100082397461 64.61599731445312,-26.409000396728516 C64.61599731445312,-26.409000396728516 64.61599731445312,-26.368000030517578 64.61599731445312,-26.368000030517578 C53.43000030517578,-20.006999969482422 40.891998291015625,-16.805999755859375 26.961000442504883,-16.805999755859375 C26.961000442504883,-16.805999755859375 -47.24300003051758,-16.805999755859375 -47.24300003051758,-16.805999755859375 C-47.24300003051758,-16.805999755859375 -19.422000885009766,-129.41799926757812 -19.422000885009766,-129.41799926757812 C-19.422000885009766,-129.41799926757812 55.92900085449219,-129.41799926757812 55.92900085449219,-129.41799926757812 C64.4520034790039,-129.41799926757812 72.072998046875,-127.48999786376953 78.83399963378906,-123.63200378417969 C85.59500122070312,-119.77400207519531 90.91999816894531,-114.5199966430664 94.77200317382812,-107.9540023803711 C98.6240005493164,-101.38800048828125 100.55000305175781,-93.427001953125 100.55000305175781,-84.1520004272461 C100.55000305175781,-72.16799926757812 97.3949966430664,-61.12900161743164 91.00299835205078,-51.07400131225586z M71.00800323486328,-203.20700073242188 C71.00800323486328,-203.20700073242188 -94.1989974975586,-203.20700073242188 -94.1989974975586,-203.20700073242188 C-94.1989974975586,-203.20700073242188 -195.03500366210938,203.20700073242188 -195.03500366210938,203.20700073242188 C-195.03500366210938,203.20700073242188 -102.31199645996094,203.20700073242188 -102.31199645996094,203.20700073242188 C-102.31199645996094,203.20700073242188 -65.80400085449219,55.75199890136719 -65.80400085449219,55.75199890136719 C-65.80400085449219,55.75199890136719 17.65999984741211,55.75199890136719 17.65999984741211,55.75199890136719 C50.88999938964844,55.75199890136719 81.0459976196289,49.349998474121094 108.08899688720703,36.58700180053711 C135.1320037841797,23.823999404907227 156.39700317382812,6.421999931335449 171.843994140625,-15.656999588012695 C187.29100036621094,-37.736000061035156 195.03500366210938,-62.319000244140625 195.03500366210938,-89.40499877929688 C195.03500366210938,-110.7040023803711 189.91299438476562,-130.0749969482422 179.6699981689453,-147.4759979248047 C169.427001953125,-164.8769989013672 154.83999633789062,-178.50100708007812 135.91000366210938,-188.39199829101562 C116.9800033569336,-198.2830047607422 95.34600067138672,-203.20700073242188 71.00800323486328,-203.20700073242188z"></path></g></g><g opacity="1" transform="matrix(1,0,0,1,293.2430114746094,478.7650146484375)"><g opacity="1" transform="matrix(1,0,0,1,0,0)"><path fill="rgb(13,13,13)" fill-opacity="1" d=" M20.281999588012695,-85.6500015258789 C20.281999588012695,-85.6500015258789 -73.62999725341797,-85.6500015258789 -73.62999725341797,-85.6500015258789 C-73.62999725341797,-85.6500015258789 -24.91200065612793,85.6500015258789 -24.91200065612793,85.6500015258789 C-24.91200065612793,85.6500015258789 73.62999725341797,85.6500015258789 73.62999725341797,85.6500015258789 C73.62999725341797,85.6500015258789 20.281999588012695,-85.6500015258789 20.281999588012695,-85.6500015258789z"></path></g></g></g><g transform="matrix(1,0,0,1,917.8819580078125,358.5249938964844)" opacity="1" style="display: block;"><g opacity="1" transform="matrix(1,0,0,1,0,0)"><path fill="rgb(14,14,14)" fill-opacity="1" d=" M223.73500061035156,-203.2050018310547 C223.73500061035156,-203.2050018310547 122.90499877929688,203.2050018310547 122.90499877929688,203.2050018310547 C122.90499877929688,203.2050018310547 32.474998474121094,203.2050018310547 32.474998474121094,203.2050018310547 C32.474998474121094,203.2050018310547 -69.55500030517578,-61.53499984741211 -69.55500030517578,-61.53499984741211 C-69.55500030517578,-61.53499984741211 -131.5850067138672,203.2050018310547 -131.5850067138672,203.2050018310547 C-131.5850067138672,203.2050018310547 -223.73500061035156,203.2050018310547 -223.73500061035156,203.2050018310547 C-212.11300659179688,156.36700439453125 -132.31300354003906,-165.26100158691406 -122.8949966430664,-203.2050018310547 C-122.8949966430664,-203.2050018310547 -31.895000457763672,-203.2050018310547 -31.895000457763672,-203.2050018310547 C-6.789000034332275,-137.32200622558594 43.84700012207031,-4.433000087738037 68.98500061035156,61.54499816894531 C68.98500061035156,61.54499816894531 132.1649932861328,-203.2050018310547 132.1649932861328,-203.2050018310547 C132.1649932861328,-203.2050018310547 223.73500061035156,-203.2050018310547 223.73500061035156,-203.2050018310547z"></path></g></g><g transform="matrix(1,0,0,1,580,361.29998779296875)" opacity="1" style="display: block;"><g opacity="1" transform="matrix(1,0,0,1,0,0)"><path stroke-linecap="round" stroke-linejoin="round" fill-opacity="0" stroke="rgb(255,61,0)" stroke-opacity="1" stroke-width="19.1" d=" M-138.5449981689453,180.82000732421875 C-292.5190124511719,153.77999877929688 -402.5,82.98400115966797 -402.5,0 C-402.5,-106.26834869384766 -222.13975524902344,-192.5500030517578 0,-192.5500030517578 C0,-192.5500030517578 0,-192.5500030517578 0,-192.5500030517578 C222.13975524902344,-192.5500030517578 402.5,-106.26834869384766 402.5,0 C402.5,106.26834869384766 222.13975524902344,192.5500030517578 0,192.5500030517578 C-48.67399978637695,192.5500030517578 -95.34100341796875,188.4080047607422 -138.5449981689453,180.82000732421875"></path></g></g><g clip-path="url(#__lottie_element_1358)" transform="matrix(1,0,0,1,917.8819580078125,358.5249938964844)" opacity="1" style="display: block;"><g opacity="1" transform="matrix(1,0,0,1,0,0)"><path fill="rgb(14,14,14)" fill-opacity="1" d=" M223.73500061035156,-203.2050018310547 C223.73500061035156,-203.2050018310547 122.90499877929688,203.2050018310547 122.90499877929688,203.2050018310547 C122.90499877929688,203.2050018310547 32.474998474121094,203.2050018310547 32.474998474121094,203.2050018310547 C32.474998474121094,203.2050018310547 -69.55500030517578,-61.53499984741211 -69.55500030517578,-61.53499984741211 C-69.55500030517578,-61.53499984741211 -131.5850067138672,203.2050018310547 -131.5850067138672,203.2050018310547 C-131.5850067138672,203.2050018310547 -223.73500061035156,203.2050018310547 -223.73500061035156,203.2050018310547 C-212.11300659179688,156.36700439453125 -132.31300354003906,-165.26100158691406 -122.8949966430664,-203.2050018310547 C-122.8949966430664,-203.2050018310547 -31.895000457763672,-203.2050018310547 -31.895000457763672,-203.2050018310547 C-6.789000034332275,-137.32200622558594 43.84700012207031,-4.433000087738037 68.98500061035156,61.54499816894531 C68.98500061035156,61.54499816894531 132.1649932861328,-203.2050018310547 132.1649932861328,-203.2050018310547 C132.1649932861328,-203.2050018310547 223.73500061035156,-203.2050018310547 223.73500061035156,-203.2050018310547z"></path></g></g><g clip-path="url(#__lottie_element_1361)" transform="matrix(1,0,0,1,3,-3)" opacity="1" style="display: block;"><g opacity="1" transform="matrix(1,0,0,1,239.03500366210938,361.2070007324219)"><g opacity="1" transform="matrix(1,0,0,1,0,0)"><path fill="rgb(13,13,13)" fill-opacity="1" d=" M91.00299835205078,-51.07400131225586 C84.61100006103516,-41.01900100708008 75.802001953125,-32.81100082397461 64.61599731445312,-26.409000396728516 C64.61599731445312,-26.409000396728516 64.61599731445312,-26.368000030517578 64.61599731445312,-26.368000030517578 C53.43000030517578,-20.006999969482422 40.891998291015625,-16.805999755859375 26.961000442504883,-16.805999755859375 C26.961000442504883,-16.805999755859375 -47.24300003051758,-16.805999755859375 -47.24300003051758,-16.805999755859375 C-47.24300003051758,-16.805999755859375 -19.422000885009766,-129.41799926757812 -19.422000885009766,-129.41799926757812 C-19.422000885009766,-129.41799926757812 55.92900085449219,-129.41799926757812 55.92900085449219,-129.41799926757812 C64.4520034790039,-129.41799926757812 72.072998046875,-127.48999786376953 78.83399963378906,-123.63200378417969 C85.59500122070312,-119.77400207519531 90.91999816894531,-114.5199966430664 94.77200317382812,-107.9540023803711 C98.6240005493164,-101.38800048828125 100.55000305175781,-93.427001953125 100.55000305175781,-84.1520004272461 C100.55000305175781,-72.16799926757812 97.3949966430664,-61.12900161743164 91.00299835205078,-51.07400131225586z M71.00800323486328,-203.20700073242188 C71.00800323486328,-203.20700073242188 -94.1989974975586,-203.20700073242188 -94.1989974975586,-203.20700073242188 C-94.1989974975586,-203.20700073242188 -195.03500366210938,203.20700073242188 -195.03500366210938,203.20700073242188 C-195.03500366210938,203.20700073242188 -102.31199645996094,203.20700073242188 -102.31199645996094,203.20700073242188 C-102.31199645996094,203.20700073242188 -65.80400085449219,55.75199890136719 -65.80400085449219,55.75199890136719 C-65.80400085449219,55.75199890136719 17.65999984741211,55.75199890136719 17.65999984741211,55.75199890136719 C50.88999938964844,55.75199890136719 81.0459976196289,49.349998474121094 108.08899688720703,36.58700180053711 C135.1320037841797,23.823999404907227 156.39700317382812,6.421999931335449 171.843994140625,-15.656999588012695 C187.29100036621094,-37.736000061035156 195.03500366210938,-62.319000244140625 195.03500366210938,-89.40499877929688 C195.03500366210938,-110.7040023803711 189.91299438476562,-130.0749969482422 179.6699981689453,-147.4759979248047 C169.427001953125,-164.8769989013672 154.83999633789062,-178.50100708007812 135.91000366210938,-188.39199829101562 C116.9800033569336,-198.2830047607422 95.34600067138672,-203.20700073242188 71.00800323486328,-203.20700073242188z"></path></g></g><g opacity="1" transform="matrix(1,0,0,1,293.2430114746094,478.7650146484375)"><g opacity="1" transform="matrix(1,0,0,1,0,0)"><path fill="rgb(13,13,13)" fill-opacity="1" d=" M20.281999588012695,-85.6500015258789 C20.281999588012695,-85.6500015258789 -73.62999725341797,-85.6500015258789 -73.62999725341797,-85.6500015258789 C-73.62999725341797,-85.6500015258789 -24.91200065612793,85.6500015258789 -24.91200065612793,85.6500015258789 C-24.91200065612793,85.6500015258789 73.62999725341797,85.6500015258789 73.62999725341797,85.6500015258789 C73.62999725341797,85.6500015258789 20.281999588012695,-85.6500015258789 20.281999588012695,-85.6500015258789z"></path></g></g></g><g transform="matrix(1,0,0,1,3,-3)" opacity="1" style="display: block;"><g opacity="1" transform="matrix(1,0,0,1,293.2430114746094,478.7650146484375)"><g opacity="1" transform="matrix(1,0,0,1,0,0)"><path fill="rgb(13,13,13)" fill-opacity="1" d=" M20.281999588012695,-85.6500015258789 C20.281999588012695,-85.6500015258789 -73.62999725341797,-85.6500015258789 -73.62999725341797,-85.6500015258789 C-73.62999725341797,-85.6500015258789 -24.91200065612793,85.6500015258789 -24.91200065612793,85.6500015258789 C-24.91200065612793,85.6500015258789 73.62999725341797,85.6500015258789 73.62999725341797,85.6500015258789 C73.62999725341797,85.6500015258789 20.281999588012695,-85.6500015258789 20.281999588012695,-85.6500015258789z"></path></g></g></g><g transform="matrix(1,0,0,1,585,363)" opacity="1" style="display: block;"><g opacity="1" transform="matrix(1,0,0,1,0,0)"><path stroke-linecap="butt" stroke-linejoin="miter" fill-opacity="0" stroke-miterlimit="4" stroke="rgb(255,61,0)" stroke-opacity="1" stroke-width="19.1" d=" M0,-192.75 C106.37872314453125,-192.75 192.75,-106.37872314453125 192.75,0 C192.75,106.37872314453125 106.37872314453125,192.75 0,192.75 C-106.37872314453125,192.75 -192.75,106.37872314453125 -192.75,0 C-192.75,-106.37872314453125 -106.37872314453125,-192.75 0,-192.75z"></path><g opacity="1" transform="matrix(1,0,0,1,0,0)"></g></g></g></g></svg>